<?xml version="1.0" encoding="UTF-8"?>
<svg xmlns="http://www.w3.org/2000/svg" xmlns:xlink="http://www.w3.org/1999/xlink" width="341pt" height="375pt" viewBox="0 0 341 375" version="1.1">
<g id="surface1">
<path style=" stroke:none;fill-rule:evenodd;fill:rgb(13.725281%,12.156677%,12.548828%);fill-opacity:1;" d="M 195.8125 54.636719 L 195.074219 90.21875 L 209.378906 70.832031 L 207.40625 125.015625 L 228.09375 98.496094 L 234.65625 181.226563 L 245.71875 133.53125 L 296.476563 166.769531 L 209.65625 28.925781 Z M 151.207031 72.429688 L 153.429688 34.691406 L 161.40625 66.589844 L 157.417969 92.890625 Z M 233.25 226.421875 L 173.414063 79.382813 L 183.335938 53.132813 L 164.355469 39.65625 L 156.617188 0.3125 L 122.484375 88.0625 L 158.53125 125.277344 L 160.625 105.527344 Z M 67.703125 198.671875 L 79.191406 164.425781 L 106.578125 225.28125 L 93.601563 138.902344 L 121.53125 156.804688 L 104.386719 118.40625 L 100.601563 85.03125 L 65.324219 151.242188 Z M 140.234375 159.898438 L 142.46875 236.054688 L 154.113281 177.179688 L 175.160156 165.492188 L 115.828125 104.066406 Z M 221.21875 276.425781 C 223.199219 267.910156 233.40625 262.46875 241.488281 262.46875 C 249.921875 262.46875 260.472656 267.351563 262.585938 276.425781 Z M 219.175781 283.089844 L 226.699219 288.882813 L 280.03125 288.882813 C 280.03125 266.480469 265.113281 248.511719 241.914063 248.511719 C 220.246094 248.511719 204.269531 265.484375 204.269531 287.023438 C 204.269531 296.09375 208.363281 308.007813 215.929688 313.609375 C 224.085938 319.640625 231.460938 323.277344 241.917969 323.277344 C 249.640625 323.277344 257.078125 320.980469 263.484375 316.699219 C 267.289063 314.15625 275.277344 306.558594 276.042969 301.34375 L 258.765625 301.390625 C 253.253906 312.609375 219.65625 316.269531 219.175781 283.089844 Z M 38.296875 303.109375 L 38.296875 249.011719 L 23.613281 261.207031 L 23.875 298.738281 C 23.996094 315.769531 9.6875 309.574219 5.898438 307.824219 L 0.417969 318.789063 C 14.351563 327.660156 38.296875 322.671875 38.296875 303.109375 Z M 328.375 265.457031 L 338.984375 256.769531 C 332.726563 251.445313 321.621094 248.511719 313.554688 248.511719 C 300.507813 248.511719 287.503906 255.691406 287.503906 270.441406 C 287.503906 295.652344 324.886719 285.839844 324.886719 302.683594 C 324.886719 308.796875 316.976563 309.816406 312.660156 309.816406 C 306.660156 309.816406 300.480469 307.398438 296.925781 304.40625 L 286.128906 313.902344 C 294.796875 321.042969 305.988281 323.277344 313.507813 323.277344 C 326.5625 323.277344 340.574219 315.773438 340.574219 300.855469 C 340.574219 273.792969 302.742188 281.402344 302.460938 268.699219 C 302.601563 258.023438 323.632813 261.554688 328.375 265.457031 Z M 142.988281 278.796875 L 194.539063 323.578125 L 194.539063 250.007813 L 180.347656 250.007813 L 180.949219 292.867188 L 129.375 248.808594 L 129.507813 321.78125 L 143.464844 321.78125 Z M 83.945313 262.46875 C 97.253906 262.46875 106.082031 272.84375 106.082031 285.894531 C 106.082031 300.355469 96.199219 309.320313 82 309.320313 C 70.097656 309.320313 61.222656 297.570313 61.222656 286.40625 C 61.222656 272.914063 69.78125 262.46875 83.945313 262.46875 Z M 45.773438 286.394531 C 45.773438 307.0625 62.792969 323.277344 83.210938 323.277344 C 94.226563 323.277344 101.367188 319.535156 109.777344 313.015625 C 117.214844 307.253906 121.613281 295.496094 121.613281 286.339844 C 121.613281 265.90625 104.300781 248.511719 83.652344 248.511719 C 73.476563 248.511719 63.671875 252.292969 56.363281 259.601563 C 49.210938 266.753906 45.773438 276.457031 45.773438 286.394531 Z M 120.023438 361.785156 L 114.910156 347.152344 L 109.949219 347.152344 L 119.492188 373.539063 L 126.511719 357.117188 L 133.394531 373.558594 L 143.082031 347.132813 L 138.265625 347.128906 L 133.113281 361.652344 L 126.71875 346.316406 Z M 252.617188 351.683594 C 255.558594 351.683594 259.59375 352.1875 259.59375 356.117188 C 259.59375 360.441406 255.789063 360.65625 252.617188 360.65625 Z M 260.070313 363.433594 C 261.515625 362.90625 264.722656 359.914063 264.722656 355.90625 C 264.722656 351.179688 260.773438 347.199219 256.105469 347.199219 L 247.132813 347.199219 L 247.132813 373.117188 L 252.617188 373.117188 L 252.617188 361.652344 L 262.085938 373.117188 L 266.574219 371.125 Z M 157.917969 361.652344 L 161.90625 361.652344 C 167.875 361.652344 167.566406 369.105469 162.023438 369.011719 L 157.917969 369.011719 Z M 157.941406 351.164063 L 162.636719 351.160156 C 166.621094 351.230469 166.660156 357.644531 162.414063 357.644531 L 157.929688 357.644531 Z M 166.839844 359.375 C 173.507813 355.253906 169.105469 347.128906 162.402344 347.199219 C 159.339844 347.21875 155.40625 347.21875 152.933594 347.699219 L 152.933594 372.597656 C 155.890625 373.066406 158.855469 373.132813 161.90625 373.117188 C 173.539063 373.117188 173.5625 361.640625 166.839844 359.375 Z M 226.460938 356.78125 L 228.945313 363.558594 L 223.851563 363.597656 Z M 219.933594 372.617188 L 222.210938 367.636719 L 230.804688 367.636719 L 233.011719 372.617188 L 238.164063 372.617188 L 226.476563 346.074219 L 214.710938 372.597656 Z M 282.285156 351.542969 C 287.851563 351.542969 292.988281 353.507813 292.988281 360.15625 C 292.988281 367.386719 287.742188 368.632813 282.261719 368.632813 Z M 29.253906 352.765625 L 32.984375 349.710938 C 30.785156 347.835938 26.878906 346.804688 24.042969 346.804688 C 19.457031 346.804688 14.878906 349.332031 14.878906 354.515625 C 14.878906 363.382813 28.027344 359.929688 28.027344 365.855469 C 28.027344 368.007813 25.246094 368.363281 23.726563 368.363281 C 21.617188 368.363281 19.445313 367.515625 18.195313 366.460938 L 14.394531 369.800781 C 17.445313 372.3125 21.378906 373.097656 24.023438 373.097656 C 28.617188 373.097656 33.546875 370.457031 33.546875 365.214844 C 33.546875 355.695313 20.238281 358.371094 20.140625 353.902344 C 20.191406 350.148438 27.585938 351.390625 29.253906 352.765625 Z M 322.394531 352.765625 L 326.125 349.710938 C 323.925781 347.835938 320.019531 346.804688 317.179688 346.804688 C 312.59375 346.804688 308.019531 349.328125 308.019531 354.515625 C 308.019531 363.382813 321.167969 359.929688 321.167969 365.855469 C 321.167969 368.007813 318.386719 368.363281 316.867188 368.363281 C 314.757813 368.363281 312.585938 367.515625 311.335938 366.460938 L 307.535156 369.800781 C 310.585938 372.3125 314.519531 373.097656 317.164063 373.097656 C 321.753906 373.097656 326.6875 370.457031 326.6875 365.210938 C 326.6875 355.695313 313.378906 358.371094 313.277344 353.902344 C 313.328125 350.148438 320.726563 351.390625 322.394531 352.765625 Z M 194.136719 352.851563 C 198.808594 352.851563 201.90625 356.492188 201.90625 361.074219 C 201.90625 366.152344 198.4375 369.300781 193.453125 369.300781 C 189.277344 369.300781 186.160156 365.175781 186.160156 361.253906 C 186.160156 356.519531 189.164063 352.851563 194.136719 352.851563 Z M 180.738281 361.25 C 180.738281 368.507813 186.710938 374.195313 193.878906 374.195313 C 197.746094 374.195313 200.253906 372.882813 203.203125 370.59375 C 205.816406 368.574219 207.359375 364.445313 207.359375 361.230469 C 207.359375 354.058594 201.28125 347.953125 194.035156 347.953125 C 190.460938 347.953125 187.019531 349.28125 184.457031 351.847656 C 181.941406 354.355469 180.738281 357.761719 180.738281 361.25 Z M 88.96875 351.808594 C 93.640625 351.808594 96.738281 355.453125 96.738281 360.03125 C 96.738281 365.109375 93.269531 368.253906 88.285156 368.253906 C 84.109375 368.253906 80.992188 364.128906 80.992188 360.210938 C 80.992188 355.476563 83.996094 351.808594 88.96875 351.808594 Z M 75.570313 360.207031 C 75.570313 367.464844 81.542969 373.15625 88.710938 373.15625 C 92.578125 373.15625 95.085938 371.839844 98.035156 369.554688 C 100.648438 367.53125 102.191406 363.40625 102.191406 360.1875 C 102.191406 353.019531 96.113281 346.910156 88.867188 346.910156 C 85.292969 346.910156 81.851563 348.238281 79.285156 350.804688 C 76.777344 353.3125 75.570313 356.722656 75.570313 360.207031 Z M 49.242188 358.1875 L 64.125 373.324219 L 64.125 347.503906 L 59.769531 347.503906 L 59.753906 362.34375 L 44.4375 346.964844 L 44.433594 372.695313 L 49.257813 372.695313 Z M 277.257813 347.820313 C 288.375 345.167969 298.363281 348.988281 298.363281 360.195313 C 298.414063 372.007813 288.6875 374.625 277.214844 372.589844 L 277.257813 347.820313 "/>
</g>
</svg>
